<?xml version="1.0" encoding="utf-8"?>
<!-- Generator: Adobe Illustrator 23.0.2, SVG Export Plug-In . SVG Version: 6.00 Build 0)  -->
<svg version="1.1" id="Шар_1" xmlns="http://www.w3.org/2000/svg" xmlns:xlink="http://www.w3.org/1999/xlink" x="0px" y="0px"
	 viewBox="0 0 579.4 110.7" style="enable-background:new 0 0 579.4 110.7;" xml:space="preserve">
<style type="text/css">
	.st0{fill:none;}
	.st1{enable-background:new    ;}
	.st2{fill:#856E19;}
	.st3{fill:#6C5915;}
	.st4{fill:#BA9923;}
	.st5{clip-path:url(#SVGID_2_);enable-background:new    ;}
	.st6{fill:#8A721A;}
	.st7{fill:#8F751B;}
	.st8{fill:#866E19;}
	.st9{fill:#826B19;}
	.st10{fill:#7D6718;}
	.st11{fill:#796417;}
	.st12{fill:#756016;}
	.st13{fill:#705D15;}
	.st14{clip-path:url(#SVGID_4_);enable-background:new    ;}
	.st15{clip-path:url(#SVGID_6_);enable-background:new    ;}
	.st16{clip-path:url(#SVGID_8_);enable-background:new    ;}
	.st17{clip-path:url(#SVGID_10_);enable-background:new    ;}
	.st18{clip-path:url(#SVGID_12_);enable-background:new    ;}
	.st19{clip-path:url(#SVGID_14_);enable-background:new    ;}
	.st20{clip-path:url(#SVGID_16_);enable-background:new    ;}
	.st21{clip-path:url(#SVGID_18_);enable-background:new    ;}
	.st22{clip-path:url(#SVGID_20_);enable-background:new    ;}
	.st23{clip-path:url(#SVGID_22_);enable-background:new    ;}
	.st24{clip-path:url(#SVGID_24_);enable-background:new    ;}
	.st25{fill:#999999;}
	.st26{fill:#949494;}
	.st27{fill:#8F8F8F;}
	.st28{fill:#8A8A8A;}
	.st29{fill:#858585;}
	.st30{fill:#808080;}
	.st31{clip-path:url(#SVGID_26_);enable-background:new    ;}
	.st32{clip-path:url(#SVGID_28_);enable-background:new    ;}
	.st33{fill:#9E9E9E;}
	.st34{fill:#A3A3A3;}
	.st35{fill:#A8A8A8;}
	.st36{fill:#9D9D9D;}
	.st37{fill:#DBDBDB;}
	.st38{clip-path:url(#SVGID_30_);enable-background:new    ;}
	.st39{clip-path:url(#SVGID_32_);enable-background:new    ;}
	.st40{clip-path:url(#SVGID_34_);enable-background:new    ;}
	.st41{clip-path:url(#SVGID_36_);enable-background:new    ;}
</style>
<rect y="5" class="st0" width="579.4" height="203"/>
<g>
	<g class="st1">
		<g>
			<polygon class="st2" points="44.4,48 40.1,41.9 63.8,41.9 68.1,48 			"/>
		</g>
		<g>
			<polygon class="st3" points="5.4,110.4 1.1,104.3 2.2,2 6.5,8.1 			"/>
		</g>
		<g>
			<polygon class="st2" points="6.5,8.1 2.2,2 67.2,2 71.5,8.1 			"/>
		</g>
		<g>
			<polygon class="st4" points="71.5,8.1 71.3,28.5 44.6,28.5 44.4,48 68.1,48 67.9,67.4 44.2,67.4 43.8,110.4 5.4,110.4 6.5,8.1 
							"/>
		</g>
	</g>
	<g class="st1">
		<g class="st1">
			<defs>
				<path id="SVGID_1_" class="st1" d="M118.5,93.5l-4.3-6.1c0.8,1.1,2.3,1.7,4.6,1.7c2.6,0,4.3-0.8,5-2.4c0.7-1.6,1.2-5.4,1.2-11.4
					l4.3,6.1c-0.1,6-0.5,9.8-1.2,11.4c-0.7,1.6-2.4,2.4-5,2.4C120.8,95.2,119.3,94.7,118.5,93.5z"/>
			</defs>
			<clipPath id="SVGID_2_">
				<use xlink:href="#SVGID_1_"  style="overflow:visible;"/>
			</clipPath>
			<g class="st5">
				<path class="st6" d="M118.5,93.5l-4.3-6.1c0.1,0.1,0.1,0.2,0.2,0.3l4.3,6.1C118.6,93.7,118.5,93.6,118.5,93.5"/>
				<path class="st7" d="M118.7,93.8l-4.3-6.1c0.3,0.4,0.7,0.6,1.2,0.9l4.3,6.1C119.4,94.4,119,94.2,118.7,93.8"/>
				<path class="st6" d="M119.9,94.7l-4.3-6.1c0.4,0.2,0.8,0.3,1.3,0.4l4.3,6.1C120.7,95,120.3,94.8,119.9,94.7"/>
				<path class="st8" d="M121.2,95l-4.3-6.1c0.5,0.1,1,0.1,1.5,0.2l4.3,6.1C122.1,95.2,121.6,95.1,121.2,95"/>
				<path class="st9" d="M122.7,95.2l-4.3-6.1c0.1,0,0.2,0,0.4,0c0.4,0,0.8,0,1.2-0.1l4.3,6.1c-0.4,0-0.8,0.1-1.2,0.1
					C122.9,95.2,122.8,95.2,122.7,95.2"/>
				<path class="st10" d="M124.3,95.1l-4.3-6.1c0.4,0,0.7-0.1,1-0.2l4.3,6.1C125,95,124.6,95.1,124.3,95.1"/>
				<path class="st11" d="M125.3,95l-4.3-6.1c0.3-0.1,0.5-0.2,0.8-0.3l4.3,6.1C125.8,94.8,125.6,94.9,125.3,95"/>
				<path class="st12" d="M126.1,94.7l-4.3-6.1c0.2-0.1,0.5-0.2,0.7-0.3l4.3,6.1C126.5,94.5,126.3,94.6,126.1,94.7"/>
				<path class="st13" d="M126.7,94.4l-4.3-6.1c0.6-0.4,1.1-0.9,1.4-1.6c0.7-1.6,1.2-5.4,1.2-11.4l4.3,6.1c-0.1,6-0.5,9.8-1.2,11.4
					C127.8,93.5,127.3,94,126.7,94.4"/>
			</g>
		</g>
		<g>
			<polygon class="st3" points="129.3,81.4 125,75.3 125.5,28.3 129.8,34.4 			"/>
		</g>
		<g class="st1">
			<defs>
				<path id="SVGID_3_" class="st1" d="M83.2,97.9l-4.3-6.1c-1.8-2.5-2.8-5.1-3.3-7.8c-0.7-4.2-1-11.6-0.9-22.1L79,68
					c-0.1,10.5,0.2,17.9,0.9,22.1C80.4,92.8,81.5,95.4,83.2,97.9z"/>
			</defs>
			<clipPath id="SVGID_4_">
				<use xlink:href="#SVGID_3_"  style="overflow:visible;"/>
			</clipPath>
			<g class="st14">
				<path class="st13" d="M83.2,97.9l-4.3-6.1c-1.8-2.5-2.8-5.1-3.3-7.8c-0.7-4.2-1-11.6-0.9-22.1L79,68
					c-0.1,10.5,0.2,17.9,0.9,22.1C80.4,92.8,81.5,95.4,83.2,97.9"/>
			</g>
		</g>
		<g class="st1">
			<defs>
				<path id="SVGID_5_" class="st1" d="M124.3,18.9l4.3,6.1c0.1,0.1,0.1,0.2,0.2,0.3c0.7,1.3,1.1,4.4,1,9.1l-4.3-6.1
					c0.1-4.8-0.3-7.8-1-9.1C124.4,19,124.3,18.9,124.3,18.9z"/>
			</defs>
			<clipPath id="SVGID_6_">
				<use xlink:href="#SVGID_5_"  style="overflow:visible;"/>
			</clipPath>
			<g class="st15">
				<path class="st13" d="M129.8,34.4l-4.3-6.1c0.1-4.8-0.3-7.8-1-9.1c-0.1-0.1-0.1-0.2-0.2-0.3l4.3,6.1c0.1,0.1,0.1,0.2,0.2,0.3
					C129.5,26.6,129.9,29.6,129.8,34.4"/>
			</g>
		</g>
		<g>
			<polygon class="st3" points="79,68 74.7,61.9 74.9,44.4 79.2,50.5 			"/>
		</g>
		<g class="st1">
			<defs>
				<path id="SVGID_7_" class="st1" d="M159.6,14.5l4.3,6.1c-0.9-1.3-2.1-2.6-3.4-3.9c-3.8-3.6-8.8-6.3-15.1-8.1
					c-6.3-1.8-13.4-2.7-21.3-2.7c-8.3,0-15.6,0.9-21.9,2.8c-6.3,1.9-11.3,4.6-15,8.1c-3.7,3.5-5.9,7.5-6.7,11.7
					c-0.7,4.3-1.2,11.6-1.3,21.8l-4.3-6.1c0.1-10.3,0.5-17.6,1.3-21.8c0.7-4.3,3-8.2,6.7-11.7c3.7-3.5,8.7-6.3,15-8.1
					c6.3-1.9,13.6-2.8,21.9-2.8c7.9,0,15,0.9,21.3,2.7c6.3,1.8,11.3,4.5,15.1,8.1C157.5,11.8,158.6,13.1,159.6,14.5z"/>
			</defs>
			<clipPath id="SVGID_8_">
				<use xlink:href="#SVGID_7_"  style="overflow:visible;"/>
			</clipPath>
			<g class="st16">
				<path class="st13" d="M79.2,50.5l-4.3-6.1c0.1-10.3,0.5-17.6,1.3-21.8c0.7-4.3,3-8.2,6.7-11.7c1.4-1.3,2.9-2.5,4.6-3.6l4.3,6.1
					c-1.7,1.1-3.3,2.3-4.6,3.6c-3.7,3.5-5.9,7.5-6.7,11.7C79.8,32.9,79.3,40.2,79.2,50.5"/>
				<path class="st12" d="M91.8,13.4l-4.3-6.1c1.7-1.1,3.6-2.1,5.7-2.9l4.3,6.1C95.5,11.3,93.6,12.3,91.8,13.4"/>
				<path class="st11" d="M97.6,10.4l-4.3-6.1c1.5-0.6,3-1.2,4.6-1.6c0.8-0.2,1.6-0.5,2.4-0.7l4.3,6.1c-0.8,0.2-1.6,0.4-2.4,0.7
					C100.6,9.3,99,9.8,97.6,10.4"/>
				<path class="st10" d="M104.6,8.1L100.3,2c2.8-0.7,5.9-1.3,9.1-1.6l4.3,6.1C110.5,6.9,107.4,7.4,104.6,8.1"/>
				<path class="st9" d="M113.7,6.5l-4.3-6.1c3.3-0.4,6.8-0.6,10.4-0.6c1,0,1.9,0,2.8,0l4.3,6.1c-0.9,0-1.9,0-2.8,0
					C120.4,5.9,117,6.1,113.7,6.5"/>
				<path class="st8" d="M126.9,6l-4.3-6.1c4.6,0.1,8.9,0.6,12.9,1.3l4.3,6.1C135.8,6.5,131.5,6.1,126.9,6"/>
				<path class="st6" d="M139.8,7.3l-4.3-6.1c1.9,0.4,3.8,0.8,5.6,1.3c2.1,0.6,4.1,1.3,6,2.1l4.3,6.1c-1.8-0.8-3.8-1.5-6-2.1
					C143.6,8.1,141.7,7.7,139.8,7.3"/>
				<path class="st7" d="M151.3,10.8L147,4.7c3.6,1.6,6.6,3.6,9.1,5.9c0.6,0.6,1.2,1.1,1.7,1.7l4.3,6.1c-0.5-0.6-1.1-1.2-1.7-1.7
					C158,14.3,154.9,12.3,151.3,10.8"/>
				<path class="st6" d="M162.2,18.4l-4.3-6.1c0.6,0.7,1.2,1.4,1.7,2.2l4.3,6.1C163.4,19.8,162.8,19.1,162.2,18.4"/>
			</g>
		</g>
		<g>
			<path class="st4" d="M167.2,28.4c0.7,4.2,1,11.6,0.9,22.1L167.8,68c-0.1,10.3-0.5,17.6-1.3,21.8c-0.7,4.3-3,8.2-6.7,11.7
				c-3.7,3.5-8.7,6.3-15,8.1s-13.6,2.8-21.9,2.8c-7.9,0-15-0.9-21.3-2.7c-6.3-1.8-11.3-4.5-15.1-8.1c-3.8-3.6-6-7.5-6.7-11.7
				c-0.7-4.2-1-11.6-0.9-22.1l0.2-17.5c0.1-10.3,0.5-17.6,1.3-21.8c0.7-4.3,3-8.2,6.7-11.7c3.7-3.5,8.7-6.3,15-8.1
				c6.3-1.9,13.6-2.8,21.9-2.8c7.9,0,15,0.9,21.3,2.7c6.3,1.8,11.3,4.5,15.1,8.1C164.3,20.3,166.5,24.2,167.2,28.4z M129.3,81.4
				l0.5-47c0.1-4.8-0.3-7.8-1-9.1c-0.7-1.3-2.3-2-4.7-2c-2,0-3.5,0.5-4.6,1.6c-1.1,1.1-1.6,4.2-1.7,9.5l-0.5,47.8
				c-0.1,5.9,0.2,9.6,0.9,11c0.7,1.4,2.3,2.1,4.9,2.1c2.6,0,4.3-0.8,5-2.4C128.8,91.2,129.3,87.4,129.3,81.4"/>
		</g>
	</g>
	<g class="st1">
		<g class="st1">
			<defs>
				<path id="SVGID_9_" class="st1" d="M220.5,93.5l-4.3-6.1c0.8,1.1,2.3,1.7,4.6,1.7c2.6,0,4.3-0.8,5-2.4c0.7-1.6,1.2-5.4,1.2-11.4
					l4.3,6.1c-0.1,6-0.5,9.8-1.2,11.4c-0.8,1.6-2.4,2.4-5,2.4C222.8,95.2,221.3,94.7,220.5,93.5z"/>
			</defs>
			<clipPath id="SVGID_10_">
				<use xlink:href="#SVGID_9_"  style="overflow:visible;"/>
			</clipPath>
			<g class="st17">
				<path class="st6" d="M220.5,93.5l-4.3-6.1c0.1,0.1,0.1,0.2,0.2,0.3l4.3,6.1C220.6,93.7,220.5,93.6,220.5,93.5"/>
				<path class="st7" d="M220.7,93.8l-4.3-6.1c0.3,0.4,0.7,0.6,1.2,0.9l4.3,6.1C221.4,94.4,221,94.2,220.7,93.8"/>
				<path class="st6" d="M221.9,94.7l-4.3-6.1c0.4,0.2,0.8,0.3,1.3,0.4l4.3,6.1C222.7,95,222.3,94.8,221.9,94.7"/>
				<path class="st8" d="M223.2,95l-4.3-6.1c0.5,0.1,1,0.1,1.5,0.2l4.3,6.1C224.1,95.2,223.6,95.1,223.2,95"/>
				<path class="st9" d="M224.7,95.2l-4.3-6.1c0.1,0,0.2,0,0.4,0c0.4,0,0.8,0,1.2-0.1l4.3,6.1c-0.4,0-0.8,0.1-1.2,0.1
					C224.9,95.2,224.8,95.2,224.7,95.2"/>
				<path class="st10" d="M226.3,95.1l-4.3-6.1c0.4,0,0.7-0.1,1-0.2l4.3,6.1C227,95,226.6,95.1,226.3,95.1"/>
				<path class="st11" d="M227.3,95l-4.3-6.1c0.3-0.1,0.5-0.2,0.8-0.3l4.3,6.1C227.8,94.8,227.6,94.9,227.3,95"/>
				<path class="st12" d="M228.1,94.7l-4.3-6.1c0.2-0.1,0.5-0.2,0.7-0.3l4.3,6.1C228.5,94.5,228.3,94.6,228.1,94.7"/>
				<path class="st13" d="M228.7,94.4l-4.3-6.1c0.6-0.4,1.1-0.9,1.4-1.6c0.7-1.6,1.2-5.4,1.2-11.4l4.3,6.1c-0.1,6-0.5,9.8-1.2,11.4
					C229.8,93.5,229.4,94,228.7,94.4"/>
			</g>
		</g>
		<g>
			<polygon class="st3" points="231.3,81.4 227,75.3 227.5,28.3 231.8,34.4 			"/>
		</g>
		<g class="st1">
			<defs>
				<path id="SVGID_11_" class="st1" d="M185.2,97.9l-4.3-6.1c-1.7-2.5-2.8-5.1-3.3-7.8c-0.7-4.2-1-11.6-0.9-22.1l4.3,6.1
					c-0.1,10.5,0.2,17.9,0.9,22.1C182.4,92.8,183.5,95.4,185.2,97.9z"/>
			</defs>
			<clipPath id="SVGID_12_">
				<use xlink:href="#SVGID_11_"  style="overflow:visible;"/>
			</clipPath>
			<g class="st18">
				<path class="st13" d="M185.2,97.9l-4.3-6.1c-1.7-2.5-2.8-5.1-3.3-7.8c-0.7-4.2-1-11.6-0.9-22.1l4.3,6.1
					c-0.1,10.5,0.2,17.9,0.9,22.1C182.4,92.8,183.5,95.4,185.2,97.9"/>
			</g>
		</g>
		<g class="st1">
			<defs>
				<path id="SVGID_13_" class="st1" d="M226.3,18.9l4.3,6.1c0.1,0.1,0.1,0.2,0.2,0.3c0.7,1.3,1.1,4.4,1,9.1l-4.3-6.1
					c0.1-4.8-0.3-7.8-1-9.1C226.4,19,226.4,18.9,226.3,18.9z"/>
			</defs>
			<clipPath id="SVGID_14_">
				<use xlink:href="#SVGID_13_"  style="overflow:visible;"/>
			</clipPath>
			<g class="st19">
				<path class="st13" d="M231.8,34.4l-4.3-6.1c0.1-4.8-0.3-7.8-1-9.1c-0.1-0.1-0.1-0.2-0.2-0.3l4.3,6.1c0.1,0.1,0.1,0.2,0.2,0.3
					C231.5,26.6,231.9,29.6,231.8,34.4"/>
			</g>
		</g>
		<g>
			<polygon class="st3" points="181.1,68 176.7,61.9 176.9,44.4 181.2,50.5 			"/>
		</g>
		<g class="st1">
			<defs>
				<path id="SVGID_15_" class="st1" d="M261.6,14.5l4.3,6.1c-0.9-1.3-2.1-2.6-3.4-3.9c-3.8-3.6-8.8-6.3-15.1-8.1
					c-6.3-1.8-13.4-2.7-21.3-2.7c-8.3,0-15.6,0.9-21.9,2.8c-6.3,1.9-11.3,4.6-15,8.1c-3.7,3.5-5.9,7.5-6.7,11.7
					c-0.7,4.3-1.2,11.6-1.3,21.8l-4.3-6.1c0.1-10.3,0.5-17.6,1.3-21.8c0.7-4.3,3-8.2,6.7-11.7c3.7-3.5,8.7-6.3,15-8.1
					c6.3-1.9,13.6-2.8,21.9-2.8c7.9,0,15,0.9,21.3,2.7c6.3,1.8,11.3,4.5,15.1,8.1C259.5,11.8,260.6,13.1,261.6,14.5z"/>
			</defs>
			<clipPath id="SVGID_16_">
				<use xlink:href="#SVGID_15_"  style="overflow:visible;"/>
			</clipPath>
			<g class="st20">
				<path class="st13" d="M181.2,50.5l-4.3-6.1c0.1-10.3,0.5-17.6,1.3-21.8c0.7-4.3,3-8.2,6.7-11.7c1.4-1.3,2.9-2.5,4.6-3.6l4.3,6.1
					c-1.7,1.1-3.3,2.3-4.6,3.6c-3.7,3.5-5.9,7.5-6.7,11.7C181.8,32.9,181.4,40.2,181.2,50.5"/>
				<path class="st12" d="M193.9,13.3l-4.3-6.1c1.7-1.1,3.6-2.1,5.7-2.9l4.3,6.1C197.5,11.3,195.6,12.3,193.9,13.3"/>
				<path class="st11" d="M199.6,10.4l-4.3-6.1c1.5-0.6,3-1.1,4.6-1.6c0.8-0.2,1.6-0.5,2.4-0.7l4.3,6.1c-0.8,0.2-1.6,0.4-2.4,0.7
					C202.6,9.3,201,9.8,199.6,10.4"/>
				<path class="st10" d="M206.6,8.1L202.3,2c2.8-0.7,5.9-1.3,9.1-1.6l4.3,6.1C212.5,6.9,209.4,7.4,206.6,8.1"/>
				<path class="st9" d="M215.7,6.5l-4.3-6.1c3.3-0.4,6.8-0.6,10.5-0.6c0.9,0,1.9,0,2.8,0l4.3,6.1c-0.9,0-1.9,0-2.8,0
					C222.4,5.9,219,6.1,215.7,6.5"/>
				<path class="st8" d="M228.9,6l-4.3-6.1c4.6,0.1,8.9,0.6,12.9,1.3l4.3,6.1C237.8,6.5,233.5,6.1,228.9,6"/>
				<path class="st6" d="M241.8,7.3l-4.3-6.1c1.9,0.4,3.8,0.8,5.6,1.3c2.1,0.6,4.1,1.3,6,2.1l4.3,6.1c-1.8-0.8-3.8-1.5-6-2.1
					C245.6,8.1,243.7,7.7,241.8,7.3"/>
				<path class="st7" d="M253.3,10.8L249,4.7c3.6,1.6,6.6,3.6,9.1,5.9c0.6,0.6,1.2,1.1,1.7,1.7l4.3,6.1c-0.5-0.6-1.1-1.2-1.7-1.7
					C260,14.3,256.9,12.3,253.3,10.8"/>
				<path class="st6" d="M264.2,18.4l-4.3-6.1c0.6,0.7,1.2,1.4,1.7,2.2l4.3,6.1C265.4,19.8,264.8,19.1,264.2,18.4"/>
			</g>
		</g>
		<g>
			<path class="st4" d="M269.2,28.4c0.7,4.2,1,11.6,0.9,22.1L269.8,68c-0.1,10.3-0.5,17.6-1.3,21.8c-0.7,4.3-3,8.2-6.7,11.7
				c-3.7,3.5-8.7,6.3-15,8.1c-6.3,1.9-13.6,2.8-21.9,2.8c-7.9,0-15-0.9-21.3-2.7c-6.3-1.8-11.3-4.5-15.1-8.1
				c-3.8-3.6-6-7.5-6.7-11.7c-0.7-4.2-1-11.6-0.9-22.1l0.2-17.5c0.1-10.3,0.5-17.6,1.3-21.8c0.7-4.3,3-8.2,6.7-11.7
				c3.7-3.5,8.7-6.3,15-8.1c6.3-1.9,13.6-2.8,21.9-2.8c7.9,0,15,0.9,21.3,2.7c6.3,1.8,11.3,4.5,15.1,8.1S268.5,24.2,269.2,28.4z
				 M231.3,81.4l0.5-47c0.1-4.8-0.3-7.8-1-9.1c-0.7-1.3-2.3-2-4.7-2c-2,0-3.5,0.5-4.6,1.6c-1.1,1.1-1.6,4.2-1.7,9.5l-0.5,47.8
				c-0.1,5.9,0.2,9.6,0.9,11c0.7,1.4,2.3,2.1,4.9,2.1c2.6,0,4.3-0.8,5-2.4C230.9,91.2,231.3,87.4,231.3,81.4"/>
		</g>
	</g>
	<g class="st1">
		<g class="st1">
			<defs>
				<path id="SVGID_17_" class="st1" d="M322.3,92.9l-4.3-6.1c5.5,0,8.9-0.8,10.2-2.3c1.3-1.5,2-5.7,2.1-12.5l4.3,6.1
					c-0.1,6.8-0.8,11-2.1,12.5S327.8,92.9,322.3,92.9z"/>
			</defs>
			<clipPath id="SVGID_18_">
				<use xlink:href="#SVGID_17_"  style="overflow:visible;"/>
			</clipPath>
			<g class="st21">
				<path class="st9" d="M322.3,92.9l-4.3-6.1c1.7,0,3.2-0.1,4.5-0.2l4.3,6.1C325.5,92.8,324,92.9,322.3,92.9"/>
				<path class="st10" d="M326.8,92.6l-4.3-6.1c1-0.1,1.8-0.3,2.6-0.4l4.3,6.1C328.6,92.4,327.8,92.5,326.8,92.6"/>
				<path class="st11" d="M329.4,92.2l-4.3-6.1c0.5-0.1,1-0.3,1.4-0.4l4.3,6.1C330.3,91.9,329.9,92.1,329.4,92.2"/>
				<path class="st12" d="M330.7,91.8l-4.3-6.1c0.3-0.1,0.6-0.3,0.9-0.5l4.3,6.1C331.4,91.5,331.1,91.6,330.7,91.8"/>
				<path class="st13" d="M331.7,91.3l-4.3-6.1c0.3-0.2,0.6-0.5,0.9-0.7c1.3-1.5,2-5.7,2.1-12.5l4.3,6.1c-0.1,6.8-0.8,11-2.1,12.5
					C332.3,90.8,332,91.1,331.7,91.3"/>
			</g>
		</g>
		<g>
			<polygon class="st3" points="334.6,78 330.2,71.9 330.7,32.2 335,38.3 			"/>
		</g>
		<g class="st1">
			<defs>
				<path id="SVGID_19_" class="st1" d="M329.5,22.1l4.3,6.1c0.2,0.3,0.4,0.7,0.6,1.2c0.4,1.3,0.6,4.3,0.6,8.9l-4.3-6.1
					c0-4.6-0.1-7.6-0.6-8.9C330,22.9,329.8,22.5,329.5,22.1z"/>
			</defs>
			<clipPath id="SVGID_20_">
				<use xlink:href="#SVGID_19_"  style="overflow:visible;"/>
			</clipPath>
			<g class="st22">
				<path class="st13" d="M335,38.3l-4.3-6.1c0-4.6-0.1-7.6-0.6-8.9c-0.1-0.4-0.3-0.8-0.6-1.2l4.3,6.1c0.2,0.3,0.4,0.7,0.6,1.2
					C334.9,30.7,335,33.6,335,38.3"/>
			</g>
		</g>
		<g class="st1">
			<defs>
				<path id="SVGID_21_" class="st1" d="M365.7,13.7l4.3,6.1c-1-1.5-2.4-2.9-4-4.2c-3.4-2.7-8.3-4.6-14.8-5.8
					c-6.5-1.2-19.1-1.8-37.6-1.8L309.2,2c18.5,0,31.1,0.6,37.6,1.8c6.5,1.2,11.5,3.1,14.8,5.8C363.3,10.9,364.6,12.3,365.7,13.7z"/>
			</defs>
			<clipPath id="SVGID_22_">
				<use xlink:href="#SVGID_21_"  style="overflow:visible;"/>
			</clipPath>
			<g class="st23">
				<path class="st9" d="M313.5,8.1L309.2,2c6.3,0,12,0.1,16.9,0.2l4.3,6.1C325.5,8.2,319.9,8.1,313.5,8.1"/>
				<path class="st8" d="M330.4,8.3l-4.3-6.1c9.5,0.3,16.4,0.8,20.7,1.6c0.2,0,0.3,0.1,0.5,0.1l4.3,6.1c-0.2,0-0.3-0.1-0.5-0.1
					C346.8,9.1,339.9,8.6,330.4,8.3"/>
				<path class="st6" d="M351.6,9.9l-4.3-6.1c3.6,0.7,6.7,1.6,9.3,2.8l4.3,6.1C358.3,11.5,355.2,10.6,351.6,9.9"/>
				<path class="st7" d="M360.9,12.7l-4.3-6.1c1.9,0.9,3.6,1.8,5,3c1,0.8,2,1.7,2.8,2.6l4.3,6.1c-0.8-0.9-1.7-1.8-2.8-2.6
					C364.5,14.5,362.9,13.6,360.9,12.7"/>
				<path class="st6" d="M368.7,18.3l-4.3-6.1c0.5,0.5,0.9,1,1.3,1.6l4.3,6.1C369.6,19.3,369.2,18.8,368.7,18.3"/>
			</g>
		</g>
		<g>
			<polygon class="st2" points="284.8,8.1 280.5,2 309.2,2 313.5,8.1 			"/>
		</g>
		<g>
			<polygon class="st3" points="283.7,110.4 279.4,104.3 280.5,2 284.8,8.1 			"/>
		</g>
		<g>
			<path class="st4" d="M372.2,24.7c0.8,3.3,1.2,9.8,1.1,19.5L372.9,80c-0.1,9.2-0.8,15.3-2.1,18.4c-1.3,3.1-3.5,5.5-6.6,7.3
				c-3.1,1.8-7,3-11.5,3.7c-4.6,0.7-11.4,1-20.6,1h-48.4l1.1-102.3h28.7c18.5,0,31.1,0.6,37.6,1.8c6.5,1.2,11.5,3.1,14.8,5.8
				C369.3,18.4,371.4,21.4,372.2,24.7z M334.6,78l0.4-39.7c0-4.6-0.1-7.6-0.6-8.9c-0.4-1.3-1.4-2.3-2.9-2.9
				c-1.5-0.6-4.4-0.9-8.6-0.9l-0.7,67.3c5.5,0,8.9-0.8,10.2-2.3S334.5,84.8,334.6,78"/>
		</g>
	</g>
	<g class="st1">
		<g class="st1">
			<defs>
				<path id="SVGID_23_" class="st1" d="M425.5,92.9l-4.3-6.1c5.5,0,8.9-0.8,10.2-2.3c1.3-1.5,2-5.7,2-12.5l4.3,6.1
					c-0.1,6.8-0.8,11-2,12.5C434.5,92.1,431,92.9,425.5,92.9z"/>
			</defs>
			<clipPath id="SVGID_24_">
				<use xlink:href="#SVGID_23_"  style="overflow:visible;"/>
			</clipPath>
			<g class="st24">
				<path class="st25" d="M425.5,92.9l-4.3-6.1c1.7,0,3.2-0.1,4.5-0.2l4.3,6.1C428.7,92.8,427.2,92.9,425.5,92.9"/>
				<path class="st26" d="M430,92.6l-4.3-6.1c1-0.1,1.8-0.3,2.6-0.4l4.3,6.1C431.8,92.4,431,92.5,430,92.6"/>
				<path class="st27" d="M432.6,92.2l-4.3-6.1c0.5-0.1,1-0.3,1.4-0.4l4.3,6.1C433.6,91.9,433.1,92.1,432.6,92.2"/>
				<path class="st28" d="M434,91.8l-4.3-6.1c0.3-0.1,0.6-0.3,0.9-0.5l4.3,6.1C434.6,91.5,434.3,91.6,434,91.8"/>
				<path class="st29" d="M434.9,91.3l-4.3-6.1c0.3-0.2,0.6-0.5,0.9-0.7c1.3-1.5,2-5.7,2-12.5l4.3,6.1c-0.1,6.8-0.8,11-2,12.5
					C435.5,90.8,435.2,91.1,434.9,91.3"/>
			</g>
		</g>
		<g>
			<polygon class="st30" points="437.8,78 433.5,71.9 433.9,32.2 438.2,38.3 			"/>
		</g>
		<g class="st1">
			<defs>
				<path id="SVGID_25_" class="st1" d="M432.8,22.1l4.3,6.1c0.2,0.3,0.4,0.7,0.6,1.2c0.4,1.3,0.6,4.3,0.5,8.9l-4.3-6.1
					c0-4.6-0.1-7.6-0.5-8.9C433.2,22.9,433,22.5,432.8,22.1z"/>
			</defs>
			<clipPath id="SVGID_26_">
				<use xlink:href="#SVGID_25_"  style="overflow:visible;"/>
			</clipPath>
			<g class="st31">
				<path class="st29" d="M438.2,38.3l-4.3-6.1c0-4.6-0.1-7.6-0.5-8.9c-0.1-0.4-0.3-0.8-0.6-1.2l4.3,6.1c0.2,0.3,0.4,0.7,0.6,1.2
					C438.1,30.7,438.3,33.6,438.2,38.3"/>
			</g>
		</g>
		<g class="st1">
			<defs>
				<path id="SVGID_27_" class="st1" d="M468.9,13.8l4.3,6.1c-1-1.5-2.4-2.9-4-4.2c-3.4-2.7-8.3-4.6-14.8-5.8
					c-6.5-1.2-19-1.8-37.6-1.8L412.4,2C431,2,443.5,2.6,450,3.8c6.5,1.2,11.5,3.1,14.8,5.8C466.5,10.9,467.8,12.3,468.9,13.8z"/>
			</defs>
			<clipPath id="SVGID_28_">
				<use xlink:href="#SVGID_27_"  style="overflow:visible;"/>
			</clipPath>
			<g class="st32">
				<path class="st25" d="M416.7,8.1L412.4,2c6.3,0,12,0.1,16.9,0.2l4.3,6.1C428.7,8.2,423.1,8.1,416.7,8.1"/>
				<path class="st33" d="M433.6,8.3l-4.3-6.1c9.5,0.3,16.4,0.8,20.7,1.6c0.2,0,0.3,0.1,0.5,0.1l4.3,6.1c-0.2,0-0.3-0.1-0.5-0.1
					C450,9.1,443.1,8.6,433.6,8.3"/>
				<path class="st34" d="M454.8,9.9l-4.3-6.1c3.6,0.7,6.7,1.6,9.3,2.8l4.3,6.1C461.5,11.5,458.4,10.6,454.8,9.9"/>
				<path class="st35" d="M464.2,12.7l-4.3-6.1c1.9,0.9,3.6,1.8,5,3c1,0.8,2,1.7,2.8,2.6l4.3,6.1c-0.8-0.9-1.7-1.8-2.8-2.6
					C467.8,14.5,466.1,13.6,464.2,12.7"/>
				<path class="st34" d="M471.9,18.3l-4.3-6.1c0.5,0.5,0.9,1,1.3,1.6l4.3,6.1C472.8,19.3,472.4,18.8,471.9,18.3"/>
			</g>
		</g>
		<g>
			<polygon class="st36" points="388,8.1 383.7,2 412.4,2 416.7,8.1 			"/>
		</g>
		<g>
			<polygon class="st30" points="386.9,110.4 382.6,104.3 383.7,2 388,8.1 			"/>
		</g>
		<g>
			<path class="st37" d="M475.5,24.7c0.8,3.3,1.2,9.8,1.1,19.5L476.1,80c-0.1,9.2-0.8,15.3-2.1,18.4c-1.3,3.1-3.5,5.5-6.6,7.3
				c-3.1,1.8-7,3-11.5,3.7c-4.6,0.7-11.4,1-20.6,1h-48.4L388,8.1h28.7c18.5,0,31.1,0.6,37.6,1.8c6.5,1.2,11.5,3.1,14.8,5.8
				C472.5,18.4,474.7,21.4,475.5,24.7z M437.8,78l0.4-39.7c0-4.6-0.1-7.6-0.5-8.9c-0.4-1.3-1.4-2.3-2.9-2.9
				c-1.5-0.6-4.4-0.9-8.6-0.9l-0.7,67.3c5.5,0,8.9-0.8,10.2-2.3C437,89,437.7,84.8,437.8,78"/>
		</g>
	</g>
	<g class="st1">
		<g class="st1">
			<defs>
				<path id="SVGID_29_" class="st1" d="M528.9,93.5l-4.3-6.1c0.8,1.1,2.3,1.7,4.6,1.7c2.6,0,4.3-0.8,5-2.4
					c0.7-1.6,1.2-5.4,1.2-11.4l4.3,6.1c-0.1,6-0.5,9.8-1.2,11.4c-0.7,1.6-2.4,2.4-5,2.4C531.2,95.2,529.7,94.7,528.9,93.5z"/>
			</defs>
			<clipPath id="SVGID_30_">
				<use xlink:href="#SVGID_29_"  style="overflow:visible;"/>
			</clipPath>
			<g class="st38">
				<path class="st34" d="M528.9,93.5l-4.3-6.1c0.1,0.1,0.1,0.2,0.2,0.3l4.3,6.1C529,93.7,529,93.6,528.9,93.5"/>
				<path class="st35" d="M529.1,93.8l-4.3-6.1c0.3,0.4,0.7,0.6,1.2,0.9l4.3,6.1C529.8,94.4,529.4,94.2,529.1,93.8"/>
				<path class="st34" d="M530.3,94.7l-4.3-6.1c0.4,0.2,0.8,0.3,1.3,0.4l4.3,6.1C531.1,95,530.7,94.8,530.3,94.7"/>
				<path class="st33" d="M531.6,95l-4.3-6.1c0.5,0.1,1,0.1,1.5,0.2l4.3,6.1C532.6,95.2,532.1,95.1,531.6,95"/>
				<path class="st25" d="M533.1,95.2l-4.3-6.1c0.1,0,0.2,0,0.4,0c0.4,0,0.8,0,1.2-0.1l4.3,6.1c-0.4,0-0.8,0.1-1.2,0.1
					C533.4,95.2,533.3,95.2,533.1,95.2"/>
				<path class="st26" d="M534.7,95.1l-4.3-6.1c0.4,0,0.7-0.1,1-0.2l4.3,6.1C535.4,95,535.1,95.1,534.7,95.1"/>
				<path class="st27" d="M535.7,95l-4.3-6.1c0.3-0.1,0.5-0.2,0.8-0.3l4.3,6.1C536.3,94.8,536,94.9,535.7,95"/>
				<path class="st28" d="M536.5,94.7l-4.3-6.1c0.2-0.1,0.5-0.2,0.7-0.3l4.3,6.1C537,94.5,536.7,94.6,536.5,94.7"/>
				<path class="st29" d="M537.2,94.4l-4.3-6.1c0.6-0.4,1.1-0.9,1.4-1.6c0.7-1.6,1.2-5.4,1.2-11.4l4.3,6.1c-0.1,6-0.5,9.8-1.2,11.4
					C538.2,93.5,537.8,94,537.2,94.4"/>
			</g>
		</g>
		<g>
			<polygon class="st30" points="539.8,81.4 535.4,75.3 535.9,28.3 540.3,34.4 			"/>
		</g>
		<g class="st1">
			<defs>
				<path id="SVGID_31_" class="st1" d="M493.6,97.9l-4.3-6.1c-1.8-2.5-2.8-5.1-3.3-7.8c-0.7-4.2-1-11.6-0.9-22.1l4.3,6.1
					c-0.1,10.5,0.2,17.9,0.9,22.1C490.8,92.8,491.9,95.4,493.6,97.9z"/>
			</defs>
			<clipPath id="SVGID_32_">
				<use xlink:href="#SVGID_31_"  style="overflow:visible;"/>
			</clipPath>
			<g class="st39">
				<path class="st29" d="M493.6,97.9l-4.3-6.1c-1.8-2.5-2.8-5.1-3.3-7.8c-0.7-4.2-1-11.6-0.9-22.1l4.3,6.1
					c-0.1,10.5,0.2,17.9,0.9,22.1C490.8,92.8,491.9,95.4,493.6,97.9"/>
			</g>
		</g>
		<g class="st1">
			<defs>
				<path id="SVGID_33_" class="st1" d="M534.7,18.9l4.3,6.1c0.1,0.1,0.1,0.2,0.2,0.3c0.7,1.3,1.1,4.4,1,9.1l-4.3-6.1
					c0.1-4.8-0.3-7.8-1-9.1C534.8,19,534.8,18.9,534.7,18.9z"/>
			</defs>
			<clipPath id="SVGID_34_">
				<use xlink:href="#SVGID_33_"  style="overflow:visible;"/>
			</clipPath>
			<g class="st40">
				<path class="st29" d="M540.3,34.4l-4.3-6.1c0.1-4.8-0.3-7.8-1-9.1c-0.1-0.1-0.1-0.2-0.2-0.3l4.3,6.1c0.1,0.1,0.1,0.2,0.2,0.3
					C540,26.6,540.3,29.6,540.3,34.4"/>
			</g>
		</g>
		<g>
			<polygon class="st30" points="489.5,68 485.2,61.9 485.4,44.4 489.7,50.5 			"/>
		</g>
		<g class="st1">
			<defs>
				<path id="SVGID_35_" class="st1" d="M570,14.5l4.3,6.1c-0.9-1.3-2.1-2.6-3.4-3.9c-3.8-3.6-8.8-6.3-15.1-8.1
					c-6.3-1.8-13.4-2.7-21.3-2.7c-8.3,0-15.6,0.9-21.9,2.8c-6.3,1.9-11.3,4.6-15,8.1c-3.7,3.5-5.9,7.5-6.7,11.7
					c-0.7,4.3-1.2,11.6-1.3,21.8l-4.3-6.1c0.1-10.3,0.5-17.6,1.3-21.8c0.7-4.3,3-8.2,6.7-11.7c3.7-3.5,8.7-6.3,15-8.1
					c6.3-1.9,13.6-2.8,21.9-2.8c7.9,0,15,0.9,21.3,2.7c6.3,1.8,11.3,4.5,15.1,8.1C567.9,11.8,569.1,13.1,570,14.5z"/>
			</defs>
			<clipPath id="SVGID_36_">
				<use xlink:href="#SVGID_35_"  style="overflow:visible;"/>
			</clipPath>
			<g class="st41">
				<path class="st29" d="M489.7,50.5l-4.3-6.1c0.1-10.3,0.5-17.6,1.3-21.8c0.7-4.3,3-8.2,6.7-11.7c1.4-1.3,2.9-2.5,4.6-3.6l4.3,6.1
					c-1.7,1.1-3.3,2.3-4.6,3.6c-3.7,3.5-5.9,7.5-6.7,11.7C490.2,32.9,489.8,40.2,489.7,50.5"/>
				<path class="st28" d="M502.3,13.4L498,7.3c1.7-1.1,3.6-2.1,5.7-2.9l4.3,6.1C505.9,11.3,504,12.3,502.3,13.4"/>
				<path class="st27" d="M508,10.4l-4.3-6.1c1.5-0.6,3-1.2,4.6-1.6c0.8-0.2,1.6-0.5,2.4-0.7l4.3,6.1c-0.8,0.2-1.6,0.4-2.4,0.7
					C511,9.3,509.5,9.8,508,10.4"/>
				<path class="st26" d="M515,8.1L510.7,2c2.8-0.7,5.9-1.3,9.1-1.6l4.3,6.1C520.9,6.9,517.9,7.4,515,8.1"/>
				<path class="st25" d="M524.1,6.5l-4.3-6.1c3.3-0.4,6.8-0.6,10.4-0.6c1,0,1.9,0,2.8,0l4.3,6.1c-0.9,0-1.9,0-2.8,0
					C530.9,5.9,527.4,6.1,524.1,6.5"/>
				<path class="st33" d="M537.4,6L533-0.1c4.6,0.1,8.9,0.6,12.9,1.3l4.3,6.1C546.2,6.5,541.9,6.1,537.4,6"/>
				<path class="st34" d="M550.2,7.3l-4.3-6.1c1.9,0.4,3.8,0.8,5.6,1.3c2.1,0.6,4.1,1.3,6,2.1l4.3,6.1c-1.8-0.8-3.8-1.5-6-2.1
					C554,8.1,552.2,7.7,550.2,7.3"/>
				<path class="st35" d="M561.8,10.8l-4.3-6.1c3.6,1.6,6.6,3.6,9.1,5.9c0.6,0.6,1.2,1.1,1.7,1.7l4.3,6.1c-0.5-0.6-1.1-1.2-1.7-1.7
					C568.4,14.3,565.4,12.3,561.8,10.8"/>
				<path class="st34" d="M572.6,18.4l-4.3-6.1c0.6,0.7,1.2,1.4,1.7,2.2l4.3,6.1C573.8,19.8,573.2,19.1,572.6,18.4"/>
			</g>
		</g>
		<g>
			<path class="st37" d="M577.6,28.4c0.7,4.2,1,11.6,0.9,22.1L578.3,68c-0.1,10.3-0.5,17.6-1.3,21.8c-0.7,4.3-3,8.2-6.7,11.7
				c-3.7,3.5-8.7,6.3-15,8.1s-13.6,2.8-21.9,2.8c-7.9,0-15-0.9-21.3-2.7c-6.3-1.8-11.3-4.5-15.1-8.1c-3.8-3.6-6-7.5-6.7-11.7
				c-0.7-4.2-1-11.6-0.9-22.1l0.2-17.5c0.1-10.3,0.5-17.6,1.3-21.8c0.7-4.3,3-8.2,6.7-11.7c3.7-3.5,8.7-6.3,15-8.1
				c6.3-1.9,13.6-2.8,21.9-2.8c7.9,0,15,0.9,21.3,2.7c6.3,1.8,11.3,4.5,15.1,8.1C574.7,20.3,576.9,24.2,577.6,28.4z M539.8,81.4
				l0.5-47c0.1-4.8-0.3-7.8-1-9.1c-0.7-1.3-2.3-2-4.7-2c-2,0-3.5,0.5-4.6,1.6c-1.1,1.1-1.6,4.2-1.7,9.5l-0.5,47.8
				c-0.1,5.9,0.2,9.6,0.9,11c0.7,1.4,2.3,2.1,4.9,2.1c2.6,0,4.3-0.8,5-2.4C539.3,91.2,539.7,87.4,539.8,81.4"/>
		</g>
	</g>
</g>
</svg>
